<?xml version="1.0" encoding="UTF-8" standalone="no"?>
<svg
   width="100"
   height="132"
   viewBox="0 0 100 132"
   version="1.1"
   id="svg21"
   sodipodi:docname="glove.svg"
   inkscape:version="1.3.2 (1:1.3.2+202404261509+091e20ef0f)"
   xmlns:inkscape="http://www.inkscape.org/namespaces/inkscape"
   xmlns:sodipodi="http://sodipodi.sourceforge.net/DTD/sodipodi-0.dtd"
   xmlns:xlink="http://www.w3.org/1999/xlink"
   xmlns="http://www.w3.org/2000/svg"
   xmlns:svg="http://www.w3.org/2000/svg">
  <sodipodi:namedview
     id="namedview21"
     pagecolor="#ffffff"
     bordercolor="#000000"
     borderopacity="0.25"
     inkscape:showpageshadow="2"
     inkscape:pageopacity="0.0"
     inkscape:pagecheckerboard="0"
     inkscape:deskcolor="#d1d1d1"
     inkscape:zoom="4.2676833"
     inkscape:cx="47.332472"
     inkscape:cy="72.053144"
     inkscape:window-width="1600"
     inkscape:window-height="822"
     inkscape:window-x="0"
     inkscape:window-y="92"
     inkscape:window-maximized="1"
     inkscape:current-layer="svg21"
     showguides="true"
     showgrid="false">
    <sodipodi:guide
       position="34.710346,86.925682"
       orientation="1,0"
       id="guide2"
       inkscape:locked="false" />
    <sodipodi:guide
       position="52.849705,93.1689"
       orientation="1,0"
       id="guide3"
       inkscape:locked="false" />
    <sodipodi:guide
       position="71.968503,127.40227"
       orientation="1,0"
       id="guide4"
       inkscape:locked="false" />
    <sodipodi:guide
       position="88.923512,85.600338"
       orientation="1,0"
       id="guide5"
       inkscape:locked="false" />
  </sodipodi:namedview>
  <defs
     id="defs2">
    <linearGradient
       xlink:href="#a"
       id="b"
       gradientUnits="userSpaceOnUse"
       x1="1075.053"
       y1="103.659"
       x2="1077.895"
       y2="127.073"
       gradientTransform="matrix(3.7598423,0,0,3.7598423,-3986.6459,-352.88155)" />
    <linearGradient
       id="a">
      <stop
         style="stop-color:#293b56;stop-opacity:.38790771"
         offset="0"
         id="stop1" />
      <stop
         style="stop-color:#293b56;stop-opacity:0"
         offset="1"
         id="stop2" />
    </linearGradient>
  </defs>
  <g
     id="g11"
     inkscape:label="color5"
     style="display:inline;opacity:0.756963">
    <path
       style="display:inline;fill:#28354c;fill-opacity:1;stroke:none;stroke-width:0.375984;stroke-linecap:round;stroke-linejoin:round;stroke-dasharray:none;stroke-opacity:1"
       d="m 37.216281,132.35618 31.086376,-5.92927 16.494428,0.76325 3.259783,-26.33018 4.639646,-8.910825 4.305019,-43.907438 -16.156042,-2.567973 -19.927164,-1.033956 -16.317716,-0.518859 -19.118798,2.917638 4.790039,22.483857 -18.235235,8.726594 17.532145,27.209982 5.658562,16.79521 z"
       id="path2"
       inkscape:label="telapak" />
    <path
       style="color:#000000;fill:#deaf64;fill-opacity:1;stroke-width:3.75984;stroke-linecap:round;stroke-linejoin:round;-inkscape-stroke:none"
       d="M 96.866179,48.019158 99.573265,25.685694 A 7.8563365,7.8563365 0 1 0 83.943601,24.072722 l -2.225827,21.543896 z"
       id="path3"
       inkscape:label="kelingking" />
    <path
       style="color:#000000;display:inline;fill:#18aaae;fill-opacity:1;stroke-width:3.75984;stroke-linecap:round;stroke-linejoin:round;-inkscape-stroke:none"
       d="m 80.304074,45.447425 a 8.4107672,8.4107672 0 0 0 0.195511,-1.819763 l -0.094,-30.28929 A 8.4107672,8.4107672 0 0 0 71.968503,4.9539243 8.4107672,8.4107672 0 0 0 63.584055,13.39477 l 0.09024,30.28553 a 8.4107672,8.4107672 0 0 0 0.150394,0.913641 z"
       id="path4"
       inkscape:label="manis" />
    <path
       style="color:#000000;fill:#1962af;fill-opacity:1;stroke-width:3.75984;stroke-linecap:round;stroke-linejoin:round;-inkscape-stroke:none"
       d="M 51.097619,0.00973169 A 8.4107672,8.4107672 0 0 0 43.092914,8.8152824 l 1.609213,33.6881866 a 8.4107672,8.4107672 0 0 0 0.297027,1.42874 l 15.919173,0.507579 0.263189,0.01504 a 8.4107672,8.4107672 0 0 0 0.327106,-2.748445 L 59.903169,8.0069163 a 8.4107672,8.4107672 0 0 0 -8.80555,-7.99718461 z"
       id="path5"
       inkscape:label="tengah" />
    <path
       style="color:#000000;display:inline;fill:#7748bc;fill-opacity:1;stroke-width:3.75984;stroke-linecap:round;stroke-linejoin:round;-inkscape-stroke:none"
       d="m 43.717048,44.060044 a 8.4107672,8.4107672 0 0 0 -0.0752,-0.740689 L 39.393229,16.237211 a 8.4107672,8.4107672 0 0 0 -7.959586,-7.1061019 8.4107672,8.4107672 0 0 0 -1.646811,0.093996 8.4107672,8.4107672 0 0 0 -7.008346,9.6139159 l 4.237343,27.085904 a 8.4107672,8.4107672 0 0 0 0.206791,0.646693 z"
       id="path6"
       inkscape:label="telunjuk" />
    <path
       style="color:#000000;display:inline;fill:#e86e42;fill-opacity:1;stroke-width:3.75984;stroke-linecap:round;stroke-linejoin:round;-inkscape-stroke:none"
       d="M 28.932548,69.993323 17.489547,50.248841 C 15.557367,46.97483 11.843284,45.187047 8.0790561,45.719078 6.8557258,45.892229 5.6785332,46.304859 4.6148139,46.933365 0.1470541,49.576693 -1.3320172,55.341321 1.3111809,59.809158 L 12.200854,78.087907 Z"
       id="path7"
       inkscape:label="jempol"
       inkscape:transform-center-x="6.9076577"
       inkscape:transform-center-y="-11.056715"
       sodipodi:nodetypes="ccccccc" />
  </g>
  <g
     id="g12"
     inkscape:label="zero"
     style="display:none">
    <path
       style="color:#000000;display:inline;fill:#7748bc;stroke-width:3.75984;stroke-linecap:round;stroke-linejoin:round;-inkscape-stroke:none"
       d="m 52.849705,39.187288 a 8.4107672,8.4107672 0 0 0 -7.15122,4.77124 l 15.219842,0.48126 0.07144,0.0038 a 8.4107672,8.4107672 0 0 0 -8.140062,-5.2563 z"
       id="path27"
       inkscape:label="tengah" />
    <path
       style="color:#000000;display:inline;fill:#7748bc;stroke-width:3.75984;stroke-linecap:round;stroke-linejoin:round;-inkscape-stroke:none"
       d="m 63.332145,44.563862 14.603228,0.759489 a 8.4107672,8.4107672 0 0 0 -7.527204,-4.726122 8.4107672,8.4107672 0 0 0 -7.076024,3.970393 z"
       id="path26"
       inkscape:label="manis" />
    <path
       style="color:#000000;display:inline;fill:#7748bc;stroke-width:3.75984;stroke-linecap:round;stroke-linejoin:round;-inkscape-stroke:none"
       d="m 81.123719,45.518862 14.223484,2.255906 a 7.8543106,7.8543106 0 0 0 -6.741398,-5.96687 7.8543106,7.8543106 0 0 0 -7.482086,3.710964 z"
       id="path25"
       inkscape:label="kelingking" />
    <path
       style="color:#000000;display:inline;fill:#7748bc;stroke-width:3.75984;stroke-linecap:round;stroke-linejoin:round;-inkscape-stroke:none"
       d="m 23.684608,78.402443 6.587244,-9.080019 -1.315945,-6.162382 0.303396,0.73287 c -5.518952,2.803408 -7.650695,7.882234 -5.740128,14.054593 z"
       id="path24"
       inkscape:label="jempol"
       sodipodi:nodetypes="cccccc" />
    <path
       style="color:#000000;display:inline;fill:#7748bc;stroke-width:3.75984;stroke-linecap:round;stroke-linejoin:round;-inkscape-stroke:none"
       d="m 27.271498,46.564099 14.877696,-2.267185 a 8.4107672,8.4107672 0 0 0 -8.185177,-3.59065 8.4107672,8.4107672 0 0 0 -6.692519,5.857835 z"
       id="path8"
       inkscape:label="telunjuk" />
    <path
       style="display:inline;fill:#28354c;fill-opacity:1;stroke:none;stroke-width:0.375984;stroke-linecap:round;stroke-linejoin:round;stroke-dasharray:none;stroke-opacity:1"
       d="m 37.216281,132.35618 31.086376,-5.92927 16.494428,0.76325 3.259783,-26.33018 4.639646,-8.910825 4.305019,-43.907438 -16.156042,-2.567973 -19.927164,-1.033956 -16.317716,-0.518859 -19.118798,2.917638 4.790039,22.483857 -7.068503,9.749271 6.365413,26.187305 5.658562,16.79521 z"
       id="path9"
       inkscape:label="telapak" />
  </g>
  <path
     style="display:inline;fill:url(#b);fill-opacity:1;stroke:none;stroke-width:0.375984;stroke-linecap:round;stroke-linejoin:round;stroke-dasharray:none;stroke-opacity:1"
     d="m 37.216281,132.35242 31.086376,-5.92927 16.490668,0.76325 3.263543,-26.32642 4.639646,-8.910825 4.305019,-43.911198 -16.156042,-2.564213 -19.927164,-1.033956 -16.317716,-0.518859 -19.118798,2.913878 4.790039,22.483857 -18.235235,8.730354 17.532145,27.206222 5.658562,16.79897 z"
     id="path10"
     inkscape:label="telapak" />
  <text
     xml:space="preserve"
     style="font-style:normal;font-variant:normal;font-weight:400;font-stretch:normal;font-size:37.1389px;font-family:sans-serif;-inkscape-font-specification:sans-serif;fill:#dddce2;fill-opacity:1;stroke:none;stroke-width:15.7087;stroke-linecap:round;stroke-linejoin:round;stroke-dasharray:none;stroke-opacity:1"
     x="68.641068"
     y="97.901001"
     id="text7"
     inkscape:label="text"><tspan
       style="font-style:normal;font-variant:normal;font-weight:400;font-stretch:normal;font-size:37.1389px;font-family:'DejaVu Serif';-inkscape-font-specification:'DejaVu Serif';text-align:center;text-anchor:middle;stroke:none;stroke-width:15.7086"
       x="59.24754"
       y="97.901001"
       id="tspan7">10</tspan></text>
  <text
     xml:space="preserve"
     style="font-style:normal;font-variant:normal;font-weight:400;font-stretch:normal;font-size:37.1389px;font-family:sans-serif;-inkscape-font-specification:sans-serif;display:none;fill:#dddce2;fill-opacity:1;stroke:none;stroke-width:15.7087;stroke-linecap:round;stroke-linejoin:round;stroke-dasharray:none;stroke-opacity:1"
     x="31.24754"
     y="97.901001"
     id="text11"
     inkscape:label="text-flip"><tspan
       style="font-style:normal;font-variant:normal;font-weight:400;font-stretch:normal;font-size:37.1389px;font-family:'DejaVu Serif';-inkscape-font-specification:'DejaVu Serif';stroke:none;stroke-width:15.7086"
       x="31.24754"
       y="97.901001"
       id="tspan11">9</tspan></text>
  <path
     style="fill:#28354c;fill-opacity:1;stroke-width:13.0603;stroke-linecap:round;stroke-linejoin:round"
     d="m 25.966832,-40.817608 h 17.487027 v 5.968833 H 25.966832 Z"
     id="path16" />
  <path
     style="fill:#28354c;fill-opacity:1;stroke-width:13.1285;stroke-linecap:round;stroke-linejoin:round"
     d="m 43.792247,-28.551659 h 19.103758 v 5.968832 H 43.792247 Z"
     id="path17" />
  <path
     style="fill:#28354c;fill-opacity:1;stroke-width:11.6169;stroke-linecap:round;stroke-linejoin:round"
     d="M 63.426122,-20.973942 H 80.65748 v 5.968832 H 63.426122 Z"
     id="path18" />
  <path
     style="fill:#28354c;fill-opacity:1;stroke-width:11.6169;stroke-linecap:round;stroke-linejoin:round"
     d="m 80.65748,-20.973942 h 17.23136 v 5.968832 H 80.65748 Z"
     id="path11" />
</svg>
